<?xml version="1.0" encoding="utf-8"?>
<!-- Generator: Adobe Illustrator 16.0.0, SVG Export Plug-In . SVG Version: 6.00 Build 0)  -->
<!DOCTYPE svg PUBLIC "-//W3C//DTD SVG 1.1//EN" "http://www.w3.org/Graphics/SVG/1.1/DTD/svg11.dtd">
<svg version="1.1" id="Layer_1" xmlns="http://www.w3.org/2000/svg" xmlns:xlink="http://www.w3.org/1999/xlink" x="0px" y="0px"
	 width="389.3px" height="139.3px" viewBox="0 0 389.3 139.3" enable-background="new 0 0 389.3 139.3" xml:space="preserve">
<path fill-rule="evenodd" clip-rule="evenodd" fill="#46423E" d="M177.6,36.4h17h17l4.3-26L205,27.9l0.2-11.7l-5.6,10.9l-5-23.1
	l-5,23.1L184,16.2l0.2,11.7l-10.9-17.5L177.6,36.4z M177.6,37.1h34v1.7h-34V37.1z"/>
<polygon fill-rule="evenodd" clip-rule="evenodd" fill="#FFFFFF" points="3,41.2 386.1,41.2 365.7,76.4 386.1,111.5 3,111.5 
	23.4,76.4 "/>
<path fill-rule="evenodd" clip-rule="evenodd" fill="#46423E" d="M3,41.2h383.1l-20.4,35.2l20.4,35.2H3l20.4-35.2L3,41.2z M11,45.8
	l17.4,30l0.3,0.6L28.4,77l-17.4,30h367.1l-17.4-30l-0.3-0.6l0.3-0.6l17.4-30H11z M26,76.4L8,45.2l-1-1.7h2h371.2h2l-1,1.7L363,76.4
	l18.1,31.1l1,1.7h-2H9H7l1-1.7L26,76.4z"/>
<g>
	<defs>
		<rect id="SVGID_1_" x="-109.7" y="-396" width="612" height="792"/>
	</defs>
	<clipPath id="SVGID_2_">
		<use xlink:href="#SVGID_1_"  overflow="visible"/>
	</clipPath>
	<path clip-path="url(#SVGID_2_)" fill="#FFFFFF" d="M96.5,80.6c0,8.3-5,12.5-15.1,12.5c-1.3,0-3.5-0.6-6.5-1.7
		c-2.9-1.1-4.7-1.7-5.6-1.6c-0.9,0-1.8,1-2.6,2.8L63,90v-9.9l4.5-2.2c1.1,4.1,2.8,6.9,5,8.4c2.2,1.5,5.7,2.3,10.6,2.3
		c2.2,0,4-0.5,5.2-1.5c1.3-1,1.9-2.3,1.9-3.9c0-1.6-0.6-3-1.7-4.1c-1.2-1.2-2.9-1.9-5-2.1l-13.8-2.7c-4.8-2.2-7.1-5.7-7.1-10.7
		c0-2.7,1-5.1,2.9-7.3c1.9-2.2,4.4-3.4,7.3-3.8c0.6-0.1,1.3-0.1,1.8-0.2c0.6,0,1.1-0.1,1.7-0.1c1.8,0,3.7,0.3,5.6,0.8
		c0.5,0.2,1.3,0.5,2.3,0.8c1,0.4,2.1,0.8,3.5,1.4c0.3,0.2,0.9,0.4,1.8,0.8l2.2-3.1l4.5,1.4l-0.9,9.7L90.6,66
		c-1.1-2.9-2.9-5.1-5.4-6.7c-2.5-1.6-5.4-2.4-8.8-2.4c-5,0-7.5,1.7-7.5,5.1c0,1.4,0.4,2.3,1.2,2.8c0.4,0.3,1,0.5,1.9,0.8
		c0.8,0.2,1.9,0.5,3.1,0.7l10.7,1.8c3.4,0.5,6,1.9,7.9,4.1C95.5,74.5,96.5,77.3,96.5,80.6 M100.9,84.1c0,3.9-1.5,7.1-4.5,9.5
		c-2.9,2.4-6.8,3.9-11.6,4.3c-0.3,0-0.5,0.1-0.7,0.1h-0.7c-1.5,0-3.2-0.2-5.2-0.7c-2.1-0.5-3.5-0.7-4.2-0.6c-0.9,0-1.9,1.3-3.1,3.8
		L67.3,98l-2.5-4.5l2.7,1.8c1.1-2.1,2.2-3.2,3.4-3.2c0.6,0,1.4,0.2,2.3,0.6c1,0.3,1.7,0.6,2.2,0.8c0.5,0.2,0.9,0.3,1,0.3
		c2.3,0.8,4.1,1.1,5.5,1c7.7-0.2,12.8-2.6,15.3-7.1c1.1-1.8,1.6-4.1,1.5-6.7c0-1.6-0.3-3.5-0.9-5.8l-0.2-0.9l0.6,0.9
		c1.2,1.8,2,3.4,2.3,4.7C100.8,80.9,100.9,82.3,100.9,84.1 M88,83.8c-3.1-1.2-6.4-2.2-9.8-2.8c-0.6-0.1-1.5-0.2-2.7-0.5
		c-1.1-0.2-2.5-0.6-4.2-0.9c-1-0.5-1.8-0.9-2.3-1.1c-0.5-0.2-0.8-0.4-0.9-0.5c-0.8-0.6-1.5-1.5-1.9-2.7l-0.3-0.9
		c1.1,1,1.9,1.6,2.6,1.8c1.1,0.4,3.8,1,7.9,1.9l5.1,0.9c2.7,0.5,4.5,1,5.4,1.7c1,0.7,1.5,1.8,1.8,3.4L88,83.8z M80.6,87.1
		c-1-0.1-1.9-0.2-2.7-0.3c-2-0.3-3.5-0.9-4.5-1.6c-1.3-1-2.4-2.5-3.3-4.6l1.8,1.7l2.9,2.2C76.3,85.5,78.2,86.4,80.6,87.1 M87.4,64
		c-4-1.9-6.7-2.9-8.1-2.9c0.1,0,0,0-0.3,0c-0.3,0-0.7,0-1.2-0.1c-0.4,0-0.8,0-1.1,0c-0.3,0-0.7,0-1,0.1c-0.8,0.1-1.5,0.3-2,0.7
		c-0.8,0.6-1.2,1.3-1.3,1.9c-1.2-0.2-1.6-0.9-1.3-2.2c0.1-1.9,1.9-2.9,5.4-2.9c3.9,0,7,1.1,9.3,3.4c0.2,0.2,0.4,0.5,0.7,0.8
		C86.8,63.1,87.1,63.5,87.4,64 M99.8,60.9l-0.6,7L96,69.1l-3-1.8l3.4-1.4l0.8-9.5L99.8,60.9z"/>
	<path clip-path="url(#SVGID_2_)" fill="#FFFFFF" d="M156.2,58.3l-2.3-0.3c-2.7,0-4.6,1.1-5.6,3.2c-1,2.2-1.5,6.6-1.5,12.9
		c0,5.8,0.4,9.4,1.1,11c0.8,1.8,2.5,2.7,5.1,2.7c0.2,0,0.5,0,0.9-0.1c0.4-0.1,0.8-0.1,1.4-0.2l-2.2,4.1h-20.4l-2.1-4.3
		c1.5,0.4,2.4,0.6,2.6,0.6c1.8,0,3-0.8,3.7-2.3c0.6-1.5,1-3.8,1-7v-4c-1.4,0.3-4.2,0.6-8.2,1c-0.8,0-3.6-0.3-8.3-1v4.7
		c0,3,0.3,5.2,0.9,6.5c0.6,1.4,1.8,2.1,3.5,2.1c0.4,0,1.2-0.1,2.2-0.3l-1.8,4.1h-20.8l-1.8-4.3c1.9,0.4,2.8,0.6,2.6,0.6
		c4.1,0,6.1-5.5,5.9-16.5l-0.1-6.6c0-4.5-1.9-6.7-5.6-6.7c-0.1,0-0.4,0-0.7,0.1c-0.4,0.1-0.9,0.1-1.5,0.2l2.5-5.3h19.8l2.6,5.3
		c-1.2-0.2-1.9-0.3-2.3-0.3c-1,0.1-1.9,0.4-2.6,0.8c-0.7,0.4-1.2,1-1.7,1.8c-0.4,0.8-0.7,1.8-0.9,3c-0.2,1.2-0.3,2.7-0.3,4.4v2.7
		c1.6,0.4,3.2,0.7,4.5,0.9c1.4,0.2,2.7,0.3,3.8,0.2c1.1,0,2.3-0.2,3.6-0.4c1.4-0.2,2.8-0.5,4.5-0.9v-7.8c0-3-1.2-4.5-3.5-4.5
		c-0.5,0-1.1,0-1.7,0.1c-0.6,0.1-1.2,0.1-2,0.2l2.7-5.3h21L156.2,58.3z M109.7,63.8c-0.4-0.2-0.9-0.3-1.5-0.5
		c-0.6-0.2-1.3-0.4-2-0.7l-1.7-3.1c1,0,1.7,0,2.3,0.2c1,0.3,1.6,0.8,2,1.3C109.2,61.5,109.5,62.5,109.7,63.8 M130.2,93.2l-1.8,4.3
		h-20.4l-1.7-3.1h20.8l1.7-4.6L130.2,93.2z M130.3,62.1c-0.8-0.3-1.6-0.4-2.6-0.3c-1.3,0-1.9,1.8-1.9,5.4v1.1c0,0.3,0,0.7,0.1,1
		l-2.7-0.3c0-0.3-0.1-0.5-0.1-0.8v-0.9c0-4.9,1.5-7.4,4.6-7.4c0.5,0,1.1,0.1,1.7,0.2L130.3,62.1z M135.6,80.1
		c-1.5,0.5-3.3,0.7-5.3,0.7c-1.5,0-2.9-0.2-4.3-0.5c-0.3,2.1-0.3,3.7,0.2,4.8c-0.2,0-0.6-0.2-1.2-0.5c-1.1-0.7-1.7-2.2-1.7-4.6
		c0-1,0.1-2,0.2-2.9c1.9,0.5,4,0.7,6.2,0.7c2.1,0,4.1-0.2,5.9-0.7L135.6,80.1z M132.7,62l-1.3-2c0.1-0.1,0.6-0.2,1.5-0.2
		c1.1,0,1.9,0.4,2.4,1.2c0.2,0.4,0.3,1.1,0.3,2L132.7,62z M159,91.6l-3.4,5.9h-20l-1.8-3.1h20.6l2.6-5.2L159,91.6z M162.1,63.1
		c-2.2-0.8-3.9-1.1-5.2-1.1c-0.8,0-1.5,0.1-2.2,0.4c-1,0.4-1.7,0.9-2.1,1.6c-0.5,0.9-0.8,2.4-1,4.7c-0.1,1.1-0.1,2.2-0.2,3.3
		s-0.1,2.2-0.1,3.2c0,4.4,0.4,7.8,1.2,10.1c-2.2,0-3.4-1.8-3.6-5.3c-0.1-2.4-0.2-4.5-0.2-6.1c0-6.6,0.9-10.8,2.7-12.5
		c1.1-1,2.4-1.5,4.1-1.5c0.8,0,2,0.2,3.6,0.6l-1.9-5.5l2.3,1.3L162.1,63.1z"/>
	<path clip-path="url(#SVGID_2_)" fill="#FFFFFF" d="M213.4,91.6h-23.5l-1.5-4.1c0.3,0,0.7,0.1,1.2,0.1c0.5,0,1.2,0.1,2,0.2
		c2.8,0,4.6-0.6,5.2-1.9c0.1-0.2,0.1-0.4,0.1-0.5c0-1.3-0.8-3.5-2.5-6.7c-2,0.7-4.3,1-6.8,1c-2.7,0-5.3-0.4-7.8-1.1
		c-1.3,3.5-1.9,5.7-1.9,6.6c0,1.8,1.4,2.7,4.3,2.7c0.4,0,0.8,0,1.3-0.1c0.4-0.1,0.9-0.1,1.5-0.2l-2,4.1h-17.3l-1.5-4.2
		c0.6,0.3,1.6,0.4,3.1,0.4c1.5,0,2.7-0.4,3.7-1.1c1.1-0.9,2.2-2.5,3-4.7l8.2-20.6c0.2-0.5,0.3-1,0.3-1.5c0-1.2-0.8-1.8-2.3-1.8
		c-0.4,0-0.9,0-1.5,0.1c-0.6,0.1-1.3,0.1-2.1,0.2l1.4-5.3h23.3l2,5.3c-0.8-0.1-1.4-0.1-2-0.2c-0.6-0.1-1.1-0.1-1.5-0.1
		c-0.6,0-1.1,0.3-1.5,0.9c-0.4,0.6-0.6,1.2-0.6,1.7c0,1,1.2,4.5,3.5,10.7c2.3,6.3,4,10.3,5,12c1.7,3,3.6,4.6,5.8,4.6
		c0.4,0,0.8,0,1.4-0.1c0.6-0.1,1.2-0.1,2-0.2L213.4,91.6z M186.8,93.6l-1.9,3.9H168l-1-3.1h16.7l2.2-4.6L186.8,93.6z M179.6,60.4
		c0.2,0.3-0.2,1.5-1.1,3.7c-0.2-0.6-0.4-1.2-0.6-1.9c-0.2-0.7-0.5-1.4-0.7-2.1C178.6,60,179.4,60.1,179.6,60.4 M193.5,83.7
		c0.3,1.1-0.6,1.7-2.9,1.7c-1.3,0-2.5-0.2-3.8-0.7c-1.3,0.5-2.6,0.7-3.9,0.7c-1.7,0-2.5-0.4-2.4-1.3c0-0.2,0.1-0.5,0.2-0.9
		c0.1-0.4,0.2-1,0.4-1.7c2.1,0.5,4.2,0.8,6.3,0.8c1.9,0,3.8-0.2,5.5-0.6C193.1,82.1,193.3,82.7,193.5,83.7 M186.8,60.5l-5.5,14.6
		c1.3,0.6,3.1,0.9,5.5,0.9c2.6,0,4.7-0.3,6.1-0.9L186.8,60.5z M188.1,70.2c-0.1,0.3-0.2,0.8-0.3,1.3c-0.1,0.6-0.3,1.3-0.5,2.1
		c-1.1,0.1-2.1,0-2.7-0.2l2.3-6.7c0.2,0.5,0.4,1,0.6,1.6C187.6,68.9,187.8,69.6,188.1,70.2 M218.9,92.2l-2.1,5.4H193l-1.3-3.1h23.2
		l2.5-5.8L218.9,92.2z M212.3,85.5c-1.9-0.4-3.4-1.6-4.5-3.6c-0.1-0.1-1.3-3.1-3.7-9c-1.1-2.8-2-5.1-2.7-6.7
		c-0.7-1.7-1.1-2.8-1.3-3.3c-0.2-0.6-0.3-1-0.3-1.3c0-1.1,0.7-1.7,2.1-1.7c0.4,0,1,0,1.7,0.1c0.7,0.1,1.5,0.1,2.5,0.2l-1.7-4.2h1.5
		l2.3,6c-1-0.1-1.8-0.1-2.5-0.2c-0.6-0.1-1.2-0.1-1.5-0.1c-0.7,0-1.1,0.3-1.1,0.8c0,0.3,0.1,0.6,0.2,1
		C203.8,64.4,206.7,71.8,212.3,85.5"/>
	<path clip-path="url(#SVGID_2_)" fill="#FFFFFF" d="M270.9,87c-0.6,1.2-1.3,2.8-2.2,4.8c-1.1,0.2-2,0.3-2.9,0.3
		c-0.9,0.1-1.7,0.1-2.5,0.1c-5.9,0-8.9-2.1-8.9-6.2v-4.5c0-2.4-0.7-4.2-2.1-5.2c-1.4-1-3.7-1.5-6.9-1.5h-6.7v2.2
		c0,3.9,0.4,6.6,1.2,8.2c0.8,1.6,2.2,2.5,4.2,2.5c0.2,0,0.5,0,0.9-0.1c0.5-0.1,1.2-0.1,2-0.2l-2.3,4.1h-23l-1.6-4.1
		c0.6,0.1,1.2,0.1,1.6,0.2c0.5,0.1,0.9,0.1,1.3,0.1c2.2,0,3.8-1,4.7-2.9c0.8-1.6,1.1-4.2,1.1-7.8V66.9c0-3.6-0.6-6.1-1.9-7.5
		c-0.8-1-2.1-1.4-3.9-1.4c-0.8,0-1.6,0.1-2.2,0.3l1.3-5.3H254c3.7,0,6.7,1,9,3.1c2.4,2.1,3.5,4.8,3.5,8.1c0,2.2-0.6,4.2-1.7,5.9
		c-1.3,2-3.2,3.2-5.5,3.4c1.1,0.3,2.1,1.3,3,2.7c1,1.5,1.4,3.1,1.5,4.8c0.2,2.8,0.5,4.6,0.9,5.4c0.5,0.8,1.5,1.3,3.1,1.3
		C268.3,87.8,269.3,87.5,270.9,87 M227.3,64c-0.4-0.4-1-0.8-1.9-1.1c-0.5-0.1-1.2,0.1-2,0.4l-2-3.3c0.5-0.1,1-0.2,1.6-0.2
		C225.6,59.8,227,61.2,227.3,64 M249.8,93.6l-1.9,3.9h-23l-1.7-3.1h23.2l2.1-4.5L249.8,93.6z M256.2,64.2c0-4.6-3.1-6.8-9.4-6.7
		c-5.3,0.1-8,3.2-8,9.4v3h6.5C252.5,70,256.2,68,256.2,64.2 M252.2,81.3c-0.2-0.6-1.1-1-2.7-1h-6.2c-0.1,0.4-0.2,0.8-0.2,1.3
		c0,1.5,0.6,2.8,1.9,3.7c-1.3,0.1-2.3-0.1-3-0.7c-1-0.7-1.5-2.5-1.5-5.3c0-0.9,0.1-1.7,0.2-2.5h6.3c1.2,0,2.3,0.3,3.4,1
		C251.8,78.5,252.4,79.7,252.2,81.3 M253.5,62.4c-1.4-0.8-2.8-1.2-3.9-1.2c-2,0-3.5,0.7-4.6,2.2c-1,1.3-1.4,2.9-1.3,4.8h-3V66
		c0-1.1,0.2-2,0.6-2.9c0.4-0.9,0.9-1.6,1.5-2.2c0.6-0.6,1.4-1,2.3-1.3c0.9-0.3,1.8-0.4,2.9-0.3C250.9,59.6,252.8,60.6,253.5,62.4
		 M274.6,92.6c-0.3,0.6-0.6,1.3-0.9,1.9c-0.3,0.6-0.5,1.3-0.8,2c-2.5,0.7-4.5,1-5.9,1c-2.1,0-4.5-0.7-7.1-2.1
		c-2.3-1.2-3.6-2.2-4.1-3c2.2,1.4,4.7,2.1,7.6,2.1c1.7,0,4-0.3,7.1-1l2.1-4.9L274.6,92.6z M270.9,68.2c-0.2,1.4-0.6,2.6-1.4,3.8
		c-0.2,0.3-0.5,0.7-1.1,1.3c-0.5,0.6-1.2,1.2-2,2.1c2.2,1.2,3.2,4.5,3.1,9.8c-0.7,0.3-1.3,0.5-1.9,0.5c-1,0-1.5-0.6-1.6-1.8
		c0-1.1-0.1-2.1-0.2-3c-0.1-0.9-0.2-1.6-0.4-2.2c-0.4-1.7-1.1-3.3-2.1-4.6c2.2-1.4,3.6-3,4.4-4.7c0.6-1.3,0.9-3,0.9-5.1
		c0-3.4-1.2-6.3-3.7-8.9c3.4,3.2,5.4,6.1,6,8.9C271.1,65.3,271.2,66.6,270.9,68.2"/>
	<path clip-path="url(#SVGID_2_)" fill="#FFFFFF" d="M322,64.6c0,6.6-4.6,9.8-13.8,9.8h-14.3c0,5.5,0.7,9.3,2.1,11.4
		c0.9,1.3,2.2,2,3.8,2c0.4,0,0.8,0,1.4-0.1c0.5-0.1,1.2-0.1,1.9-0.2l-1.7,4.1h-24l-1.2-4.1c0.5,0.1,0.9,0.1,1.2,0.2
		c0.4,0.1,0.7,0.1,0.9,0.1c1.6,0,3.1-0.6,4.5-1.7c1.5-1.2,2.2-2.5,2.2-4V66.8c0-1.6-0.1-3-0.3-4.2c-0.2-1.1-0.6-2.1-1.1-2.7
		c-0.5-0.7-1.1-1.2-1.9-1.5c-0.8-0.3-1.7-0.5-2.9-0.5c-0.8,0-1.7,0.1-2.6,0.3l2-5.3H310c3.6,0,6.5,1.1,8.7,3.2
		C320.9,58.2,322,61.1,322,64.6 M282.5,64c-0.1-0.2-0.2-0.3-0.2-0.4c-0.1-0.1-0.2-0.2-0.2-0.3c-0.4-0.5-0.8-0.8-1.1-0.9
		c-0.4,0-0.9,0.1-1.6,0.3l-2.1-3c1.3,0,2.3,0.1,3,0.5C281.5,61,282.2,62.2,282.5,64 M305.8,93.3l-1.5,4.2h-24.5l-1.1-3.1h24.2
		l2.1-5.3L305.8,93.3z M311.8,63.7c0-3.8-3.1-5.8-9.4-5.8c-3.2,0-5.5,0.5-6.6,1.5c-1.3,1.1-1.9,3.2-1.9,6.5v4H306
		c0.8,0,1.5-0.2,2.3-0.5c0.7-0.3,1.3-0.8,1.9-1.3c0.5-0.6,1-1.2,1.3-2C311.7,65.4,311.8,64.6,311.8,63.7 M309.1,63.4
		c-1.1-1.2-2.6-1.8-4.7-1.8c-1.6,0-2.9,0.5-3.8,1.6c-0.9,1.1-1.4,2.6-1.4,4.5h-2.6v-0.8c0-2.7,0.5-4.7,1.5-5.9
		c1-1.2,2.7-1.8,5.2-1.8C306.5,59.3,308.4,60.7,309.1,63.4 M326.5,65.5c0,4.4-1.7,7.9-5.1,10.5c-3.4,2.6-8,3.8-14.1,3.8h-7.7
		c0,0.3,0.1,0.7,0.2,1.2c0.1,0.5,0.2,1.1,0.4,1.9c0.3,0.8,0.8,1.7,1.7,2.7c-1.9-0.2-3.2-0.9-4-2c-0.8-1.1-1.1-2.9-1.1-5.5v-1.5h12.3
		c4.6,0,8.2-1.1,10.9-3.4c2.6-2.1,3.8-5,3.8-8.7c0-1.6-0.2-3-0.5-4.2c-0.3-1.2-1-2.8-2.1-4.7l1.8,1.4
		C325.3,59.4,326.5,62.2,326.5,65.5"/>
	<path clip-path="url(#SVGID_2_)" fill="#46423E" d="M78.3,117.1h0.7c0.4,0.5,1,1.3,1.6,2.4l3.8,9.9c0.3,0.9,0.8,1.8,1.4,2.7
		c0.1,0.5,0.3,0.8,0.6,1.1l0.9,0.8c0.6,0.4,0.9,0.7,1.1,1c0,0.5-0.4,0.9-1.2,1l-1.9-0.2v0.1l-0.8-0.2l-0.8,0.2l-0.5-0.1l-0.6,0.1
		l-2.3-0.1c-0.3,0-0.6-0.3-0.8-0.9c0-0.4,0.5-0.7,1.6-0.9c0.7-0.2,1.1-0.7,1.1-1.4c-0.4-0.6-0.8-1.4-1.3-2.2l-1.1-0.4l-1.2,0.2
		l-0.9-0.2l-0.8,0.2l-0.9-0.1c-0.7,0.1-1.1,0.8-1.1,2c-0.1,0-0.1,0.3-0.2,0.8l1.1,0.9c0.7,0.3,1,0.7,1,1.1c0,0.5-0.3,0.9-0.8,1.1
		c-1.9-0.1-3.1-0.2-3.5-0.3c-1.4,0.1-2,0.2-2,0.4c-1.1,0-1.6-0.5-1.6-1.4c0-0.4,0.7-0.9,2.1-1.6c0.5-0.7,1-1.7,1.7-3
		c1.1-2.8,2.1-5.3,3-7.4C76.6,120.6,77.5,118.7,78.3,117.1 M77.3,124.5c-0.2,0.5-0.5,1.3-0.8,2.3l-0.1,0.3v0.5
		c0,0.1,0.2,0.2,0.7,0.3l0.8-0.3l0.9,0.2c0.7,0,1-0.3,1-1l-0.4-1c-0.2-0.4-0.5-1-0.8-1.7c-0.1-0.3-0.2-0.5-0.5-0.8
		C77.8,123.6,77.5,124,77.3,124.5"/>
	<path clip-path="url(#SVGID_2_)" fill="#46423E" d="M105.5,117l0.4,0.2l0.2-0.1c0,0.1,0.1,0.2,0.2,0.2l0.2,0.4
		c0,0.5-0.5,1.1-1.5,1.7l-0.8,1.1v0.2l0.1,0.3l-0.2,0.8l0.1,0.8l-0.1,0.4l0.2,0.9v0.1l-0.2,0.7l0.1,0.4l-0.1,0.6l0.1,0.4l-0.1,0.7
		v0.1l0.1,0.1l-0.1,0.1v0.2l0.1,1.1l-0.1,2.1h0.1l-0.1,0.1v0.4l0.1,0.1c0,0.2-0.2,0.8-0.7,1.9c0,0.2-0.4,0.8-1.1,1.5
		c-0.6,0.4-1.1,0.7-1.7,0.8c-0.7,0.5-1.6,0.8-2.7,0.8c-0.2-0.1-0.5-0.1-1-0.1h-0.2l-0.7,0.1c-2.4-0.7-3.6-1.3-3.6-1.9
		c-0.7-0.4-1.2-1-1.5-1.7c-0.2-0.8-0.4-1.6-0.4-2.4l-0.1-2.6l0.1-1.6l-0.1-0.4l0.1-0.4l-0.1-0.3l0.1-0.4l-0.3-1.6l0.1-0.3l-0.1-0.7
		l0.1-1.4c-0.2-0.6-0.6-0.9-1.3-0.9c-1.2-0.3-1.8-0.6-1.8-1.1c0-0.6,0.3-1,0.9-1h1.3l1.1,0.1l0.9-0.2l1,0.2h0.3l0.1-0.1l0.1,0.1H93
		l1.5,0.1l0.8-0.1c0.7,0.1,1,0.4,1,1c0,0.4-0.6,0.6-1.8,0.9c-0.4,0.4-0.7,0.8-0.9,1.2l0.1,0.4l-0.1,1.2v0.4l0.1,0.6l-0.1,0.6v2.4
		l0,1l0,0.9v0.3l0.1,0.4l-0.1,0.4v0.3l0.2,0.8l-0.1,0.4c0,1.8,0.9,3.1,2.6,3.7c0.9,0.3,1.9,0.4,3,0.4c2.1-0.9,3.1-1.9,3.1-3.1
		c0.1,0,0.2-0.6,0.3-1.7l-0.1-1.2l0.1-1.7l-0.1-0.4l0.1-0.6c-0.1-0.3-0.2-0.8-0.2-1.5V124l0.1-0.8l-0.2-0.4l0.1-0.4
		c-0.1-0.6-0.1-0.9-0.2-0.9l0.1-0.7v-0.4c-0.3-0.4-0.7-0.7-1.2-1.1l-0.7-0.4l-0.1,0.1c-0.5-0.2-0.7-0.5-0.7-0.9
		c0.1-0.6,0.6-0.9,1.6-0.9l0.4-0.2c0.1,0.1,0.4,0.2,1,0.2c0.1-0.1,0.6-0.2,1.4-0.2l0.2,0.1L105.5,117z"/>
	<path clip-path="url(#SVGID_2_)" fill="#46423E" d="M116.5,117c2.1,0,3.7,0.4,4.9,1.1l0.3,0.3c0.4,0.1,0.7,0.1,0.8,0.1h0.1l0.3,0.1
		h0.1c0.3-0.2,0.6-0.6,0.9-1.1l0.3-0.1c0.4,0,0.8,0.5,1.1,1.6l-0.2,2v0.7l0,0.4l0.1,0.3l-0.2,1.8c-0.2,0.1-0.3,0.2-0.5,0.2
		c-0.3,0-0.6-0.6-1-1.8c-0.1,0-0.3-0.4-0.6-1.1c-0.2-0.2-0.4-0.5-0.6-1.1c-0.1,0-0.9-0.5-2.2-1.5h-0.2c-0.6-0.3-1.3-0.4-1.9-0.4
		h-0.2c-0.4,0.1-0.7,0.2-1,0.3c-0.3,0.2-0.7,0.4-1.1,0.5l-0.5,0.4c-0.5,0.4-0.8,0.9-1,1.4c-0.2,0.2-0.3,0.6-0.3,0.9
		c-0.2,0.5-0.3,0.9-0.3,1.3c0,0.1,0,0.1,0,0.2l-0.1,1.4c0,0.1,0,0.3,0,0.5c0,0.5,0.1,1.2,0.2,2.1c0,0.6,0,1.1,0.1,1.7
		s0.3,1.3,0.8,2.3l0.4,0.7c0.2,0.4,0.3,0.6,0.4,0.8c0.2,0.2,0.5,0.5,0.8,0.9c0.3,0.3,0.6,0.5,1,0.7c0.3,0.1,0.7,0.3,1.1,0.4
		c0.3,0,0.6,0,0.9,0c1.5,0,2.4-0.3,2.9-1c0.1,0,0.2-0.1,0.5-0.3c0.4-0.2,0.7-0.7,1.1-1.4c0.2,0,0.3-0.4,0.5-1.1
		c0.1,0,0.2-0.1,0.3-0.2c0.2,0,0.3,0.2,0.4,0.7c-0.1,0.6-0.4,1.3-0.8,1.9c-0.5,0.5-0.8,0.9-0.9,1.1c-0.4,0.2-0.8,0.5-1.3,0.9
		c-0.7,0.2-1.3,0.4-1.8,0.5l-1.3,0.1l-1.3-0.1c-1.2-0.1-2-0.4-2.6-0.7c-0.4-0.2-0.9-0.6-1.5-0.9c-0.6-0.6-1.2-1.3-1.8-2
		c-0.2-0.5-0.5-1-0.9-1.5c-0.2-0.5-0.4-1-0.7-1.5l-0.3-0.9c-0.1-0.6-0.2-1.5-0.4-2.9c0.1-0.9,0.3-1.9,0.7-3.1l0.8-1.6
		c0.5-0.8,1.1-1.6,1.9-2.2c1.2-0.9,2.4-1.4,3.5-1.5L116.5,117z"/>
	<path clip-path="url(#SVGID_2_)" fill="#46423E" d="M129.4,117l0.8,0.2c0.6-0.1,1-0.1,1-0.2l0.6,0.1l0.7-0.1l0.7,0.2l0.1-0.1
		l0.3,0.1c0.5,0,1,0,1.2-0.1l2,0.2c0.6-0.1,1-0.2,1.2-0.3l0.1,0.1h0.1l0.4-0.1l0.6,0.2l0.6-0.1l0.5,0.1l0.6-0.1l0.6,0.1l0.6-0.1
		l0.6,0.1l0.6-0.1c0.8,0.2,1.2,0.5,1.2,0.9v0.1l-0.1,1.1l0.1,0.6l-0.1,1.4l0.1,0.6l-0.2,0.8v0.1l0.1,0.2l-0.2,1l0.1,0.8l-0.1,0.8
		v0.3l-0.2,0.2c-0.5,0-0.8-0.9-1-2.6c0-0.3-0.3-0.8-0.6-1.5c-0.4-1.3-0.8-2-1.1-2c-0.2-0.4-0.9-0.8-1.9-1.2h-0.6
		c-0.3,0.4-0.5,1.1-0.7,2c0,0.3,0.1,0.5,0.2,0.5c-0.1,0.1-0.2,0.5-0.2,1.3l0.2,0.5l-0.1,0.3v0.3c0.1,1.3,0.2,2,0.3,2l-0.1,0.1v0.3
		l-0.1,0.8c0.1,0,0.2,0.2,0.2,0.4l-0.1,0.5c0,0.3,0.1,0.4,0.2,0.4l-0.1,0.7c0,0.2,0,0.3,0.1,0.3l-0.1,0.1v0.6l-0.1,0.6v0.1l0.1,0.6
		l-0.2,0.7l0.3,0.4l-0.1,0.4l0.3,0.6l-0.1,0.7c0.4,0.4,1,0.6,1.7,0.7l0.5,0.3v0.6c0,0.1-0.3,0.3-0.8,0.3l-0.1-0.1h-0.5l-0.4,0.1
		c-0.2-0.1-0.4-0.1-0.8-0.1l-1.1,0.1l-0.8-0.1l-0.5,0.2l-0.8-0.1h-0.6l-0.6,0.1c-0.5,0-1.1-0.2-1.8-0.5v-0.3c0-0.2,0.3-0.3,0.9-0.4
		h0.4c0.2-0.2,0.6-0.3,1.1-0.6c0.2-0.2,0.3-0.4,0.3-0.6l-0.1-1.4l0.2-1.2l-0.1-0.1l0.1-0.1v-0.3c0-0.3,0-0.5-0.1-0.5l0.1-0.1v-0.3
		l-0.1-0.3l0.2-0.8l-0.1-1l0.1-0.8h-0.1l0.1-0.1v-0.1c0-0.7-0.1-1.1-0.1-1.1l0.1-0.6l-0.1-0.3l0.1-0.3l-0.1-0.4l0.2-0.2
		c0-0.3-0.1-0.5-0.3-0.8l0.1-0.6l-0.1-0.6l0.1-0.6l-0.2-0.8l0.2-0.5c-0.2-1-0.3-1.5-0.5-1.5h-0.3c-0.6,0-1.3,0.6-2.3,1.7
		c-0.4,0.5-0.8,1.3-1.1,2.4c-0.1,0-0.2,0.2-0.2,0.4l0.1,0.6c-0.3,0.4-0.5,1-0.5,1.9l-0.3,0.6l-0.5,0.1h-0.1c-0.2,0-0.4-0.1-0.5-0.3
		l0.1-0.3v-0.3l-0.2-0.9l0.1-1l-0.2-0.9l0.1-1.5l-0.1-0.5l0.2-0.6l-0.1-0.6v-0.1l0.1-0.7l-0.1-0.5C128.1,117.3,128.6,117,129.4,117"
		/>
	<path clip-path="url(#SVGID_2_)" fill="#46423E" d="M153.6,116.9L153.6,116.9l0.4,0.1l0.1-0.1c0.1,0.1,0.4,0.1,0.9,0.1
		c0.2,0,0.5,0,0.8,0l0.5,0.2l0.2,0.6c-0.1,0.6-0.3,0.9-0.6,0.9c-0.1,0-0.1,0-0.2,0c0,0,0,0.1,0,0.1c0,0.3-0.4,0.4-1.1,0.4
		c-0.3,0.3-0.5,0.6-0.7,1.1c0,1,0,1.6,0,1.8c0,2.7-0.1,4.5-0.1,5.4l0.1,0.2l0,4.5c0,0.2,0.2,0.5,0.5,1.2l0.4,0.8l0.7-0.1h0.1
		c0.3,0.1,0.5,0.3,0.6,0.5l0.1,0.9c-0.1,0.3-0.4,0.5-0.9,0.6l-2.7-0.1c-0.2-0.1-0.5-0.1-0.9-0.1c-0.6,0-1.5,0.1-2.6,0.2l-0.6-0.1
		c-0.7-0.4-1.1-0.7-1.1-0.8v-0.1c0.1-0.9,0.5-1.3,1-1.3l0.1,0.1h0.1c0.6-0.2,1-0.6,1.1-1.3l0.1-4.1l-0.2-8.4c-0.3-0.7-0.7-1-1.1-1
		l-0.1,0.1h-0.1c-0.8-0.5-1.3-0.8-1.4-1v-0.3c0-0.2,0.5-0.5,1.5-0.7l1.1,0l1.5-0.1l2,0.1L153.6,116.9z"/>
	<path clip-path="url(#SVGID_2_)" fill="#46423E" d="M165.7,117.1l2.5,0c0.6,0.1,1.3,0.3,2,0.7c1.3,0.5,2.3,1.3,3.2,2.7
		c0.4,0.9,0.7,1.5,1,1.9c0,0.3,0.1,0.8,0.4,1.3c0,0.2,0,0.3,0.1,0.5c0.1,0.2,0.1,0.5,0.1,0.9l-0.1,0.7l0.2,0.4v0.5l-0.2,0.8l0.2,0.3
		l-0.8,3.5l-1.4,1.9c-0.1,0-0.7,0.5-1.7,1.6c-0.5,0.3-1.4,0.7-2.7,1l-0.5-0.1l-0.3,0.2l-0.1-0.1h-0.1l-1.3-0.1v0.1
		c-1.1-0.2-1.7-0.4-1.7-0.7c-0.8,0-1.5-0.5-2.3-1.5c-0.3,0-0.9-0.9-1.9-2.6c-0.3-0.7-0.6-1.6-0.8-2.5c-0.1,0-0.1-0.2-0.1-0.5
		l-0.1-1.3c0-0.9-0.1-1.3-0.2-1.3l0.2-1.3l0.1-0.6c0.5-0.9,0.7-1.6,0.8-2c0.3-0.1,0.6-0.5,1-1.3c0.8-0.8,1.4-1.3,1.8-1.7
		C163.3,118.2,164.1,117.6,165.7,117.1 M162.6,122.6l0.1,2.2l-0.2,1.3c0.1,0.4,0.1,1.3,0.2,2.7l0,1c0.1,0.2,0.3,0.7,0.6,1.4
		c0,0.5,0.5,1.3,1.6,2.3l0.6,0.5c0.4,0.3,0.7,0.5,1.1,0.5l0.2-0.1l0.7,0.1c1.6-0.3,2.5-0.7,2.5-1.1c0.6-0.3,1.1-1,1.6-2.1l0.2-0.7
		c0.2-0.9,0.3-1.4,0.3-1.7l-0.1-0.2l0.1-0.6l-0.1-0.9l0.1-0.8c-0.2-3.1-0.6-4.8-1.1-5.1c-0.1-0.6-0.4-1.2-1-1.9
		c-0.8-0.3-1.4-0.6-2-1h-0.2l-0.8,0.1l-0.2-0.1l-1.3,0.5c-1.4,1.3-2.3,2.3-2.5,3.1C162.9,122.3,162.8,122.5,162.6,122.6"/>
	<path clip-path="url(#SVGID_2_)" fill="#46423E" d="M178.4,117l0.6,0.1l0.3-0.1l0.4,0.1l0.3-0.1c2.2,0.1,3.3,0.5,3.3,1.1
		c0,0.1,0.2,0.5,0.7,1c0,0.3,0.6,1.1,1.7,2.5l1.1,1.5c0.8,0.9,1.3,1.5,1.3,1.7c0.3,0.4,0.7,0.9,1.3,1.5c0,0.2,0.5,0.9,1.6,2
		c0,0.3,0.2,0.4,0.7,0.5c0.1-0.2,0.2-0.6,0.2-1v-0.2l-0.1-0.3c0.1-0.2,0.2-0.5,0.2-0.8v-1.9l-0.2-0.7l0.2-1l-0.1-0.6l0.1-1.1
		c0-0.8-0.5-1.6-1.4-2.3c-1.1-0.1-1.7-0.4-1.7-0.9c0-0.4,0.4-0.7,1.2-0.9l2.9,0.3l2.7-0.2c0.8,0,1.1,0.3,1.1,0.9
		c0,0.3-0.7,0.6-2.1,1c-0.7,0.5-1,1.3-1,2.6l-0.1,0.3v0.8l0.2,0.3l-0.2,0.5v0.2l0.2,0.2l-0.1,0.8l0.1,0.4l-0.1,0.8l0.1,0.6l-0.1,0.5
		l0.1,1.4l-0.1,0.7l0.1,2l-0.1,1.1l0.1,0.5c0,0.1,0,0.6,0.1,1.6v0.7c-0.1,0.6-0.4,1-1,1c-0.6,0-1.2-0.7-1.9-2.2
		c-0.9-1-1.5-1.8-1.7-2.3c-0.8-0.7-1.3-1.3-1.3-1.7c-2.1-2.3-3.4-4-4.1-5.2c-0.3-0.3-0.7-0.8-1-1.4c-0.2-0.2-0.4-0.3-0.6-0.3h-0.1
		l-0.2,0.2v0.1l-0.1,0.8l0.1,1v0.7c0,0.3,0,0.7,0.1,1.4l-0.2,1.6l0.1,0.6l-0.2,0.5c0.3,2,0.6,2.9,0.7,2.9c0,0.4,0.7,0.8,2,1.3
		l0.5,0.7c0,0.6-0.3,0.9-1,1l-0.1-0.1h-0.1l-0.8,0.1h-0.2l-0.2-0.2l-0.5,0.1l-3.2,0.1l-0.2,0.1c-1.2-0.1-1.8-0.5-1.8-1.2v-0.2
		c0-0.4,0.6-0.7,1.7-0.9c0.4,0,0.8-0.8,1.3-2.3l0.1-0.4l-0.1-1.2v-0.4c0-0.4,0.1-0.6,0.2-0.8l-0.1-0.8v-0.2l-0.1-0.1l0.1-0.1v-0.4
		l-0.1-0.8V126l0.2-3.1c0-0.3-0.1-0.5-0.2-0.5l0.1-0.3l-0.1-0.8l0.1-1.3c-0.2-0.7-0.6-1-1.2-1c-1.3-0.3-1.9-0.6-1.9-0.9
		C176.8,117.4,177.3,117,178.4,117"/>
	<path clip-path="url(#SVGID_2_)" fill="#46423E" d="M210.3,117h3.6l3.4,0.2l2.7-0.1l1.4,0h0.3c1.4,0,2.2,0.3,2.2,0.8l0.1,0.2l0,5
		l-0.2,0.5c-0.1,0.7-0.5,1-1,1c-0.3,0-0.6-0.7-0.9-2.2l-1.1-1.8c-0.1,0-0.3-0.3-0.7-0.9c-0.3,0-0.8-0.3-1.5-0.9
		c-0.6-0.3-1.6-0.5-3-0.5c-1.2,0.2-1.8,0.4-1.8,0.7l-0.7,1.2c0,1.5-0.1,2.3-0.1,2.5v0.5c0.1,1.4,0.4,2.2,0.8,2.2l0.5,0.1
		c1.1,0,1.7-0.2,1.7-0.7c0.5-0.4,0.9-0.9,1.2-1.6l0-0.9c0.1-0.3,0.3-0.5,0.5-0.6h0.6c0.1,0.1,0.3,0.3,0.4,0.7v7.8l0,0.4
		c0,0.4-0.2,0.7-0.6,1c-0.3,0-0.5-0.2-0.7-0.7l-0.2-0.5c0-0.1-0.1-0.4-0.2-0.9v-0.1c-0.6-1.4-1.4-2.2-2.5-2.2h-0.1
		c-0.7,0.2-1.1,0.7-1.3,1.5c0,0.4,0,0.8,0,1.2c0,0.5,0,1,0.1,1.4c0.1,0.6,0.2,1.3,0.4,2l0.2,0.6c0,0.5,0.6,0.8,1.8,0.8h0.7
		c1.9,0,3.5-0.7,4.8-2l0.8-1.4v-0.1l0.7-2.1c0-0.3,0.1-0.5,0.3-0.6c0.2,0,0.5,0.1,0.9,0.4c0.2,0.1,0.3,0.4,0.3,0.7v4.3
		c0,0.8-0.2,1.6-0.6,2.1l-0.6,0.1l-1.5,0l-2,0.1l-2-0.1c-0.2,0-0.4,0-0.6,0c-0.4,0-0.7,0-1.1,0.1l-1.3,0l-1.4-0.1l-1.2,0.1l-0.8,0
		h-0.8l-0.9,0.1l-0.8-0.1v0.1c-0.2,0-0.7-0.2-1.5-0.6v-0.1c0.2-0.5,0.4-0.8,0.6-0.8l0.8,0.1c0.4-0.3,0.8-0.5,1.2-0.6l0.4-1.4V121
		l0-1.5c-0.1-0.8-0.7-1.2-2.1-1.2c-0.3,0-0.5-0.2-0.8-0.7v-0.1c0-0.1,0.3-0.2,1-0.3C208.8,117,209.5,117,210.3,117"/>
	<path clip-path="url(#SVGID_2_)" fill="#46423E" d="M228.3,117l0.6,0.1l0.3-0.1l0.4,0.1l0.3-0.1c2.2,0.1,3.3,0.5,3.3,1.1
		c0,0.1,0.2,0.5,0.7,1c0,0.3,0.6,1.1,1.7,2.5l1.1,1.5c0.8,0.9,1.3,1.5,1.3,1.7c0.3,0.4,0.7,0.9,1.3,1.5c0,0.2,0.5,0.9,1.6,2
		c0,0.3,0.2,0.4,0.7,0.5c0.1-0.2,0.2-0.6,0.2-1v-0.2l-0.1-0.3c0.1-0.2,0.2-0.5,0.2-0.8v-1.9l-0.2-0.7l0.2-1l-0.1-0.6l0.1-1.1
		c0-0.8-0.5-1.6-1.4-2.3c-1.1-0.1-1.7-0.4-1.7-0.9c0-0.4,0.4-0.7,1.2-0.9l2.9,0.3l2.7-0.2c0.8,0,1.1,0.3,1.1,0.9
		c0,0.3-0.7,0.6-2.1,1c-0.7,0.5-1,1.3-1,2.6l-0.1,0.3v0.8l0.2,0.3l-0.2,0.5v0.2l0.2,0.2l-0.1,0.8l0.1,0.4l-0.1,0.8l0.1,0.6l-0.1,0.5
		l0.1,1.4l-0.1,0.7l0.1,2l-0.1,1.1l0.1,0.5c0,0.1,0,0.6,0.1,1.6v0.7c-0.1,0.6-0.4,1-1,1c-0.6,0-1.2-0.7-1.9-2.2
		c-0.9-1-1.5-1.8-1.7-2.3c-0.8-0.7-1.3-1.3-1.3-1.7c-2.1-2.3-3.4-4-4.1-5.2c-0.3-0.3-0.7-0.8-1-1.4c-0.2-0.2-0.4-0.3-0.6-0.3H232
		l-0.2,0.2v0.1l-0.1,0.8l0.1,1v0.7c0,0.3,0,0.7,0.1,1.4l-0.2,1.6l0.1,0.6l-0.2,0.5c0.3,2,0.6,2.9,0.7,2.9c0,0.4,0.7,0.8,2,1.3
		l0.5,0.7c0,0.6-0.3,0.9-1,1l-0.1-0.1h-0.1l-0.8,0.1h-0.2l-0.2-0.2l-0.5,0.1l-3.2,0.1l-0.2,0.1c-1.2-0.1-1.8-0.5-1.8-1.2v-0.2
		c0-0.4,0.6-0.7,1.7-0.9c0.4,0,0.8-0.8,1.3-2.3l0.1-0.4l-0.1-1.2v-0.4c0-0.4,0.1-0.6,0.2-0.8l-0.1-0.8v-0.2l-0.1-0.1l0.1-0.1v-0.4
		l-0.1-0.8V126l0.2-3.1c0-0.3-0.1-0.5-0.2-0.5l0.1-0.3l-0.1-0.8l0.1-1.3c-0.2-0.7-0.6-1-1.2-1c-1.3-0.3-1.9-0.6-1.9-0.9
		C226.7,117.4,227.3,117,228.3,117"/>
	<path clip-path="url(#SVGID_2_)" fill="#46423E" d="M256.7,117c0.3,0.1,1,0.3,1.8,0.4c0.3,0.3,1,0.6,2.2,0.9c0.5,0,1-0.3,1.7-0.9
		h0.1c0.5,0.3,0.8,0.5,0.8,0.7l-0.2,0.6l0.2,0.6l-0.2,0.2c0,0.3,0.1,0.4,0.2,0.4l-0.1,0.3c0,0.4,0.1,0.8,0.4,1.4
		c-0.2,0.3-0.3,0.6-0.3,0.9v0.1l0.1,0.6c0,0.6-0.2,1-0.6,1.2h-0.3c-0.4-0.3-0.7-0.7-0.9-1l0.1-0.1v-0.2c-0.4-1-1-1.9-1.6-2.6
		c0-0.4-0.1-0.6-0.3-0.7l-0.1,0.1h-0.1c-1.1-0.8-2.2-1.2-3.3-1.2l-1.4,0.4l-0.4-0.1c-0.2,0-0.4,0.3-0.5,0.8c-0.2,0-0.5,0.4-0.9,1.2
		l0.1,0.1v0.1c-0.7,1.2-1,2.1-1,2.8l0.1,0.3c-0.2,0-0.4,1.1-0.6,3.2l0.2,0.6l-0.1,0.1v0.4l0.2,0.7l-0.1,0.4c0,0.2,0.1,0.5,0.4,0.8
		v0.3c0,0.6,0.3,1.3,0.9,2l0.7,1c0.1,0,0.4,0.2,0.9,0.7h0.2l0.1-0.1c0.5,0.3,1.1,0.5,1.7,0.7c0.6,0,1.7-0.5,3.3-1.4l0.1-0.4
		l-0.1-0.4c0.2-0.2,0.2-0.6,0.2-1.2v-0.1c0-0.3-0.1-0.5-0.2-0.5l0.2-0.9c-0.3,0-0.6-0.1-0.9-0.4c-1-0.2-1.5-0.5-1.5-0.9v-0.1
		c0-0.3,0.4-0.5,1.2-0.6l0.4,0.1h0.1l0.3-0.1l0.2,0.1l0.8-0.1l0.4,0.4l1.7-0.3l0.5,0.1h0.7l0.6-0.1c0.3,0.1,0.5,0.2,0.5,0.4v0.3
		c-0.1,0.4-0.3,0.7-0.7,0.7c-0.5,0-0.9,0.3-1,0.9l-0.2,0.6l0.1,0.5l-0.3,0.6l0.1,2.1c-0.4,1.3-0.6,2-0.8,2h-0.1
		c-0.3,0-0.5-0.2-0.5-0.6c-0.1,0-0.5-0.2-1.1-0.6l-0.2-0.1c-0.8,0.4-1.4,0.6-1.8,0.6c0,0.2-0.8,0.5-2.4,0.7l-0.4-0.1l-0.5,0.1
		c-0.4-0.2-0.9-0.4-1.7-0.6h-0.6c-0.5-0.6-1-1-1.5-1.2c-0.2-0.2-0.4-0.5-0.4-0.7c-0.4-0.2-0.8-0.6-1.1-1.2c-0.8-0.6-1.2-1.3-1.4-2.2
		c0-0.3-0.2-1.1-0.5-2.3v-0.1c-0.1-0.2-0.2-0.6-0.2-1.1l0.3-0.6v-0.1c-0.1-0.2-0.2-0.3-0.2-0.5V125l0.3-1l-0.1-0.1
		c0.6-1.4,1-2.1,1.2-2.3c0.1,0,0.2-0.3,0.4-0.9c0.3,0,0.8-0.5,1.4-1.5c1-1,1.8-1.4,2.5-1.4c0.2-0.2,1-0.4,2.3-0.6L256.7,117z"/>
	<path clip-path="url(#SVGID_2_)" fill="#46423E" d="M274.8,116.9L274.8,116.9l0.4,0.1l0.1-0.1c0.1,0.1,0.4,0.1,0.9,0.1
		c0.2,0,0.5,0,0.8,0l0.5,0.2l0.2,0.6c-0.1,0.6-0.3,0.9-0.6,0.9c-0.1,0-0.1,0-0.2,0c0,0,0,0.1,0,0.1c0,0.3-0.4,0.4-1.1,0.4
		c-0.3,0.3-0.5,0.6-0.7,1.1c0,1,0,1.6,0,1.8c0,2.7-0.1,4.5-0.1,5.4l0.1,0.2l0,4.5c0,0.2,0.2,0.5,0.5,1.2l0.4,0.8l0.7-0.1h0.1
		c0.3,0.1,0.5,0.3,0.6,0.5l0.1,0.9c-0.1,0.3-0.4,0.5-0.9,0.6l-2.7-0.1c-0.2-0.1-0.5-0.1-0.9-0.1c-0.6,0-1.5,0.1-2.6,0.2l-0.6-0.1
		c-0.7-0.4-1.1-0.7-1.1-0.8v-0.1c0.1-0.9,0.5-1.3,1-1.3l0.1,0.1h0.1c0.6-0.2,1-0.6,1.1-1.3l0.1-4.1l-0.2-8.4c-0.3-0.7-0.7-1-1.1-1
		l-0.1,0.1h-0.1c-0.8-0.5-1.3-0.8-1.4-1v-0.3c0-0.2,0.5-0.5,1.5-0.7l1.1,0l1.5-0.1l2,0.1L274.8,116.9z"/>
	<path clip-path="url(#SVGID_2_)" fill="#46423E" d="M281.8,117l0.6,0.1l0.3-0.1l0.4,0.1l0.3-0.1c2.2,0.1,3.3,0.5,3.3,1.1
		c0,0.1,0.2,0.5,0.7,1c0,0.3,0.6,1.1,1.7,2.5l1.1,1.5c0.8,0.9,1.3,1.5,1.3,1.7c0.3,0.4,0.7,0.9,1.3,1.5c0,0.2,0.5,0.9,1.6,2
		c0,0.3,0.2,0.4,0.7,0.5c0.1-0.2,0.2-0.6,0.2-1v-0.2l-0.1-0.3c0.1-0.2,0.2-0.5,0.2-0.8v-1.9l-0.2-0.7l0.2-1l-0.1-0.6l0.1-1.1
		c0-0.8-0.5-1.6-1.4-2.3c-1.1-0.1-1.7-0.4-1.7-0.9c0-0.4,0.4-0.7,1.2-0.9l2.9,0.3l2.7-0.2c0.8,0,1.1,0.3,1.1,0.9
		c0,0.3-0.7,0.6-2.1,1c-0.7,0.5-1,1.3-1,2.6L297,122v0.8l0.2,0.3l-0.2,0.5v0.2l0.2,0.2l-0.1,0.8l0.1,0.4l-0.1,0.8l0.1,0.6l-0.1,0.5
		l0.1,1.4l-0.1,0.7l0.1,2l-0.1,1.1l0.1,0.5c0,0.1,0,0.6,0.1,1.6v0.7c-0.1,0.6-0.4,1-1,1c-0.6,0-1.2-0.7-1.9-2.2
		c-0.9-1-1.5-1.8-1.7-2.3c-0.8-0.7-1.3-1.3-1.3-1.7c-2.1-2.3-3.4-4-4.1-5.2c-0.3-0.3-0.7-0.8-1-1.4c-0.2-0.2-0.4-0.3-0.6-0.3h-0.1
		l-0.2,0.2v0.1l-0.1,0.8l0.1,1v0.7c0,0.3,0,0.7,0.1,1.4l-0.2,1.6l0.1,0.6l-0.2,0.5c0.3,2,0.6,2.9,0.7,2.9c0,0.4,0.7,0.8,2,1.3
		l0.5,0.7c0,0.6-0.3,0.9-1,1l-0.1-0.1h-0.1l-0.8,0.1h-0.2l-0.2-0.2l-0.5,0.1l-3.2,0.1l-0.2,0.1c-1.2-0.1-1.8-0.5-1.8-1.2v-0.2
		c0-0.4,0.6-0.7,1.7-0.9c0.4,0,0.8-0.8,1.3-2.3l0.1-0.4l-0.1-1.2v-0.4c0-0.4,0.1-0.6,0.2-0.8l-0.1-0.8v-0.2l-0.1-0.1l0.1-0.1v-0.4
		l-0.1-0.8V126l0.2-3.1c0-0.3-0.1-0.5-0.2-0.5l0.1-0.3l-0.1-0.8l0.1-1.3c-0.2-0.7-0.6-1-1.2-1c-1.3-0.3-1.9-0.6-1.9-0.9
		C280.3,117.4,280.8,117,281.8,117"/>
	<path clip-path="url(#SVGID_2_)" fill="#46423E" d="M306.2,117h3.6l3.4,0.2l2.7-0.1l1.4,0h0.3c1.4,0,2.2,0.3,2.2,0.8l0.1,0.2l0,5
		l-0.2,0.5c-0.1,0.7-0.5,1-1,1c-0.3,0-0.6-0.7-0.9-2.2l-1.1-1.8c-0.1,0-0.3-0.3-0.7-0.9c-0.3,0-0.8-0.3-1.5-0.9
		c-0.6-0.3-1.6-0.5-3-0.5c-1.2,0.2-1.8,0.4-1.8,0.7l-0.7,1.2c0,1.5-0.1,2.3-0.1,2.5v0.5c0.1,1.4,0.4,2.2,0.8,2.2l0.5,0.1
		c1.1,0,1.7-0.2,1.7-0.7c0.5-0.4,0.9-0.9,1.2-1.6l0-0.9c0.1-0.3,0.3-0.5,0.5-0.6h0.6c0.1,0.1,0.3,0.3,0.4,0.7v7.8l0,0.4
		c0,0.4-0.2,0.7-0.6,1c-0.3,0-0.5-0.2-0.7-0.7l-0.2-0.5c0-0.1-0.1-0.4-0.2-0.9v-0.1c-0.6-1.4-1.4-2.2-2.5-2.2h-0.1
		c-0.7,0.2-1.1,0.7-1.3,1.5c0,0.4,0,0.8,0,1.2c0,0.5,0,1,0.1,1.4c0.1,0.6,0.2,1.3,0.4,2l0.2,0.6c0,0.5,0.6,0.8,1.8,0.8h0.7
		c1.9,0,3.5-0.7,4.8-2l0.8-1.4v-0.1l0.7-2.1c0-0.3,0.1-0.5,0.3-0.6c0.2,0,0.5,0.1,0.9,0.4c0.2,0.1,0.3,0.4,0.3,0.7v4.3
		c0,0.8-0.2,1.6-0.6,2.1l-0.6,0.1l-1.5,0l-2,0.1l-2-0.1c-0.2,0-0.4,0-0.6,0c-0.4,0-0.7,0-1.1,0.1l-1.3,0l-1.4-0.1l-1.2,0.1l-0.8,0
		h-0.8l-0.9,0.1l-0.8-0.1v0.1c-0.2,0-0.7-0.2-1.5-0.6v-0.1c0.2-0.5,0.4-0.8,0.6-0.8l0.8,0.1c0.4-0.3,0.8-0.5,1.2-0.6l0.4-1.4V121
		l0-1.5c-0.1-0.8-0.7-1.2-2.1-1.2c-0.3,0-0.5-0.2-0.8-0.7v-0.1c0-0.1,0.3-0.2,1-0.3C304.8,117,305.5,117,306.2,117"/>
</g>
</svg>
